<svg width="165" height="71" viewBox="0 0 165 71" fill="none" xmlns="http://www.w3.org/2000/svg">
<path d="M51.6698 27.2491L37.5287 61.9954L11.1504 33.1377L51.6698 27.2491Z" fill="#CEAE24"/>
<path d="M65.7821 16.6694L51.5883 51.429L25.2301 22.5567L65.7821 16.6694Z" fill="#CEAE24" fill-opacity="0.95"/>
<path d="M51.6406 27.1181L44.6653 43.7982L32.1494 30.0885L51.6406 27.1181Z" fill="#CEAE24" fill-opacity="0.9"/>
<path d="M70.7102 23.9901V21.4545H82.6562V23.9901H78.2031V36H75.1634V23.9901H70.7102ZM87.5923 29.6932V36H84.5668V21.4545H87.5071V27.0156H87.6349C87.8812 26.3717 88.2789 25.8674 88.8281 25.5028C89.3774 25.1335 90.0663 24.9489 90.8949 24.9489C91.6525 24.9489 92.313 25.1146 92.8764 25.446C93.4446 25.7727 93.8849 26.2438 94.1974 26.8594C94.5147 27.4702 94.6709 28.2017 94.6662 29.054V36H91.6406V29.5938C91.6454 28.9214 91.4749 28.3982 91.1293 28.0241C90.7884 27.6501 90.3101 27.4631 89.6946 27.4631C89.2827 27.4631 88.9181 27.5507 88.6009 27.7259C88.2884 27.901 88.0421 28.1567 87.8622 28.4929C87.687 28.8243 87.5971 29.2244 87.5923 29.6932ZM102.019 36.2131C100.897 36.2131 99.9308 35.9858 99.1211 35.5312C98.3162 35.072 97.6959 34.4233 97.2603 33.5852C96.8247 32.7424 96.6069 31.7457 96.6069 30.5952C96.6069 29.473 96.8247 28.4882 97.2603 27.6406C97.6959 26.7931 98.3091 26.1326 99.0998 25.6591C99.8952 25.1856 100.828 24.9489 101.898 24.9489C102.618 24.9489 103.288 25.0649 103.908 25.2969C104.533 25.5241 105.078 25.8674 105.542 26.3267C106.01 26.786 106.375 27.3636 106.635 28.0597C106.896 28.7509 107.026 29.5606 107.026 30.4886V31.3196H97.8143V29.4446H104.178C104.178 29.009 104.083 28.6231 103.894 28.2869C103.704 27.9508 103.442 27.688 103.105 27.4986C102.774 27.3045 102.388 27.2074 101.948 27.2074C101.489 27.2074 101.081 27.3139 100.726 27.527C100.376 27.7353 100.101 28.017 99.9023 28.3722C99.7035 28.7225 99.6017 29.1132 99.5969 29.544V31.3267C99.5969 31.8665 99.6964 32.3329 99.8952 32.7259C100.099 33.1188 100.385 33.4219 100.755 33.6349C101.124 33.848 101.562 33.9545 102.069 33.9545C102.405 33.9545 102.712 33.9072 102.992 33.8125C103.271 33.7178 103.51 33.5758 103.709 33.3864C103.908 33.197 104.06 32.965 104.164 32.6903L106.962 32.875C106.82 33.5473 106.529 34.1345 106.088 34.6364C105.653 35.1335 105.089 35.5218 104.398 35.8011C103.712 36.0758 102.918 36.2131 102.019 36.2131ZM125.852 21.4545V36H123.196L116.868 26.8452H116.761V36H113.686V21.4545H116.385L122.663 30.6023H122.791V21.4545H125.852ZM133.308 36.2131C132.186 36.2131 131.22 35.9858 130.41 35.5312C129.605 35.072 128.985 34.4233 128.549 33.5852C128.114 32.7424 127.896 31.7457 127.896 30.5952C127.896 29.473 128.114 28.4882 128.549 27.6406C128.985 26.7931 129.598 26.1326 130.389 25.6591C131.184 25.1856 132.117 24.9489 133.187 24.9489C133.907 24.9489 134.577 25.0649 135.197 25.2969C135.822 25.5241 136.367 25.8674 136.831 26.3267C137.299 26.786 137.664 27.3636 137.924 28.0597C138.185 28.7509 138.315 29.5606 138.315 30.4886V31.3196H129.103V29.4446H135.467C135.467 29.009 135.372 28.6231 135.183 28.2869C134.993 27.9508 134.731 27.688 134.395 27.4986C134.063 27.3045 133.677 27.2074 133.237 27.2074C132.778 27.2074 132.37 27.3139 132.015 27.527C131.665 27.7353 131.39 28.017 131.191 28.3722C130.993 28.7225 130.891 29.1132 130.886 29.544V31.3267C130.886 31.8665 130.985 32.3329 131.184 32.7259C131.388 33.1188 131.674 33.4219 132.044 33.6349C132.413 33.848 132.851 33.9545 133.358 33.9545C133.694 33.9545 134.002 33.9072 134.281 33.8125C134.56 33.7178 134.799 33.5758 134.998 33.3864C135.197 33.197 135.349 32.965 135.453 32.6903L138.251 32.875C138.109 33.5473 137.818 34.1345 137.377 34.6364C136.942 35.1335 136.378 35.5218 135.687 35.8011C135.001 36.0758 134.208 36.2131 133.308 36.2131ZM142.623 25.0909L144.625 28.9048L146.678 25.0909H149.782L146.621 30.5455L149.867 36H146.777L144.625 32.2287L142.509 36H139.384L142.623 30.5455L139.498 25.0909H142.623ZM157.381 25.0909V27.3636H150.811V25.0909H157.381ZM152.303 22.4773H155.328V32.6477C155.328 32.9271 155.371 33.1449 155.456 33.3011C155.542 33.4527 155.66 33.5592 155.811 33.6207C155.968 33.6823 156.148 33.7131 156.351 33.7131C156.493 33.7131 156.635 33.7012 156.777 33.6776C156.919 33.6491 157.028 33.6278 157.104 33.6136L157.58 35.8651C157.428 35.9124 157.215 35.9669 156.941 36.0284C156.666 36.0947 156.332 36.1349 155.939 36.1491C155.21 36.1776 154.571 36.0805 154.022 35.858C153.477 35.6354 153.053 35.2898 152.75 34.821C152.447 34.3523 152.298 33.7604 152.303 33.0455V22.4773Z" fill="#F1F1F1"/>
<path d="M75.5568 47.9205L74.6534 48.1761C74.5966 48.0256 74.5128 47.8793 74.402 47.7372C74.294 47.5923 74.1463 47.473 73.9588 47.3793C73.7713 47.2855 73.5312 47.2386 73.2386 47.2386C72.8381 47.2386 72.5043 47.331 72.2372 47.5156C71.973 47.6974 71.8409 47.929 71.8409 48.2102C71.8409 48.4602 71.9318 48.6577 72.1136 48.8026C72.2955 48.9474 72.5795 49.0682 72.9659 49.1648L73.9375 49.4034C74.5227 49.5455 74.9588 49.7628 75.2457 50.0554C75.5327 50.3452 75.6761 50.7187 75.6761 51.1761C75.6761 51.5511 75.5682 51.8864 75.3523 52.1818C75.1392 52.4773 74.8409 52.7102 74.4574 52.8807C74.0739 53.0511 73.6278 53.1364 73.1193 53.1364C72.4517 53.1364 71.8991 52.9915 71.4616 52.7017C71.0241 52.4119 70.7472 51.9886 70.6307 51.4318L71.5852 51.1932C71.6761 51.5455 71.848 51.8097 72.1009 51.9858C72.3565 52.1619 72.6903 52.25 73.1023 52.25C73.571 52.25 73.9432 52.1506 74.2188 51.9517C74.4972 51.75 74.6364 51.5085 74.6364 51.2273C74.6364 51 74.5568 50.8097 74.3977 50.6562C74.2386 50.5 73.9943 50.3835 73.6648 50.3068L72.5739 50.0511C71.9744 49.9091 71.5341 49.6889 71.2528 49.3906C70.9744 49.0895 70.8352 48.7131 70.8352 48.2614C70.8352 47.892 70.9389 47.5653 71.1463 47.2812C71.3565 46.9972 71.642 46.7741 72.0028 46.6122C72.3665 46.4503 72.7784 46.3693 73.2386 46.3693C73.8864 46.3693 74.3949 46.5114 74.7642 46.7955C75.1364 47.0795 75.4006 47.4545 75.5568 47.9205ZM80.0366 46.4545V47.3068H76.6445V46.4545H80.0366ZM77.6332 44.8864H78.6388V51.125C78.6388 51.4091 78.68 51.6222 78.7624 51.7642C78.8477 51.9034 78.9556 51.9972 79.0863 52.0455C79.2198 52.0909 79.3604 52.1136 79.5082 52.1136C79.619 52.1136 79.7099 52.108 79.7809 52.0966C79.8519 52.0824 79.9087 52.071 79.9513 52.0625L80.1559 52.9659C80.0877 52.9915 79.9925 53.017 79.8704 53.0426C79.7482 53.071 79.5934 53.0852 79.4059 53.0852C79.1218 53.0852 78.8434 53.0241 78.5707 52.902C78.3008 52.7798 78.0763 52.5938 77.8974 52.3438C77.7212 52.0938 77.6332 51.7784 77.6332 51.3977V44.8864ZM84.1381 53.1364C83.5472 53.1364 83.0288 52.9957 82.5827 52.7145C82.1396 52.4332 81.793 52.0398 81.543 51.5341C81.2958 51.0284 81.1722 50.4375 81.1722 49.7614C81.1722 49.0795 81.2958 48.4844 81.543 47.9759C81.793 47.4673 82.1396 47.0724 82.5827 46.7912C83.0288 46.5099 83.5472 46.3693 84.1381 46.3693C84.729 46.3693 85.2461 46.5099 85.6893 46.7912C86.1353 47.0724 86.4819 47.4673 86.729 47.9759C86.979 48.4844 87.104 49.0795 87.104 49.7614C87.104 50.4375 86.979 51.0284 86.729 51.5341C86.4819 52.0398 86.1353 52.4332 85.6893 52.7145C85.2461 52.9957 84.729 53.1364 84.1381 53.1364ZM84.1381 52.233C84.587 52.233 84.9563 52.1179 85.2461 51.8878C85.5359 51.6577 85.7504 51.3551 85.8896 50.9801C86.0288 50.6051 86.0984 50.1989 86.0984 49.7614C86.0984 49.3239 86.0288 48.9162 85.8896 48.5384C85.7504 48.1605 85.5359 47.8551 85.2461 47.6222C84.9563 47.3892 84.587 47.2727 84.1381 47.2727C83.6893 47.2727 83.32 47.3892 83.0302 47.6222C82.7404 47.8551 82.5259 48.1605 82.3867 48.5384C82.2475 48.9162 82.1779 49.3239 82.1779 49.7614C82.1779 50.1989 82.2475 50.6051 82.3867 50.9801C82.5259 51.3551 82.7404 51.6577 83.0302 51.8878C83.32 52.1179 83.6893 52.233 84.1381 52.233ZM88.6392 53V46.4545H89.6108V47.4432H89.679C89.7983 47.1193 90.0142 46.8565 90.3267 46.6548C90.6392 46.4531 90.9915 46.3523 91.3835 46.3523C91.4574 46.3523 91.5497 46.3537 91.6605 46.3565C91.7713 46.3594 91.8551 46.3636 91.9119 46.3693V47.392C91.8778 47.3835 91.7997 47.3707 91.6776 47.3537C91.5582 47.3338 91.4318 47.3239 91.2983 47.3239C90.9801 47.3239 90.696 47.3906 90.446 47.5241C90.1989 47.6548 90.0028 47.8366 89.858 48.0696C89.7159 48.2997 89.6449 48.5625 89.6449 48.858V53H88.6392ZM95.6491 53.1364C95.0185 53.1364 94.4744 52.9972 94.017 52.7188C93.5625 52.4375 93.2116 52.0455 92.9645 51.5426C92.7202 51.0369 92.598 50.4489 92.598 49.7784C92.598 49.108 92.7202 48.517 92.9645 48.0057C93.2116 47.4915 93.5554 47.0909 93.9957 46.804C94.4389 46.5142 94.956 46.3693 95.5469 46.3693C95.8878 46.3693 96.2244 46.4261 96.5568 46.5398C96.8892 46.6534 97.1918 46.8381 97.4645 47.0938C97.7372 47.3466 97.9545 47.6818 98.1165 48.0994C98.2784 48.517 98.3594 49.0312 98.3594 49.642V50.0682H93.3139V49.1989H97.3366C97.3366 48.8295 97.2628 48.5 97.1151 48.2102C96.9702 47.9205 96.7628 47.6918 96.4929 47.5241C96.2259 47.3565 95.9105 47.2727 95.5469 47.2727C95.1463 47.2727 94.7997 47.3722 94.5071 47.571C94.2173 47.767 93.9943 48.0227 93.8381 48.3381C93.6818 48.6534 93.6037 48.9915 93.6037 49.3523V49.9318C93.6037 50.4261 93.6889 50.8452 93.8594 51.1889C94.0327 51.5298 94.2727 51.7898 94.5795 51.9688C94.8864 52.1449 95.2429 52.233 95.6491 52.233C95.9134 52.233 96.152 52.196 96.3651 52.1222C96.581 52.0455 96.767 51.9318 96.9233 51.7812C97.0795 51.6278 97.2003 51.4375 97.2855 51.2102L98.2571 51.483C98.1548 51.8125 97.983 52.1023 97.7415 52.3523C97.5 52.5994 97.2017 52.7926 96.8466 52.9318C96.4915 53.0682 96.0923 53.1364 95.6491 53.1364Z" fill="#F1F1F1"/>
</svg>
